solid OpenSCAD_Model
  facet normal 0 0 1
    outer loop
      vertex 0.999 7.001 9
      vertex 5.001 2 9
      vertex 5.001 7.001 9
    endloop
  endfacet
  facet normal 0 0 1
    outer loop
      vertex 5.001 2 9
      vertex 0.999 7.001 9
      vertex 0.999 2 9
    endloop
  endfacet
  facet normal 0 0 -1
    outer loop
      vertex 0.999 2 3
      vertex 5.001 7.001 3
      vertex 5.001 2 3
    endloop
  endfacet
  facet normal 0 0 -1
    outer loop
      vertex 5.001 7.001 3
      vertex 0.999 2 3
      vertex 0.999 7.001 3
    endloop
  endfacet
  facet normal 0 -1 0
    outer loop
      vertex 0.999 2 3
      vertex 5.001 2 9
      vertex 0.999 2 9
    endloop
  endfacet
  facet normal 0 -1 0
    outer loop
      vertex 5.001 2 9
      vertex 0.999 2 3
      vertex 5.001 2 3
    endloop
  endfacet
  facet normal 1 0 0
    outer loop
      vertex 5.001 2 9
      vertex 5.001 7.001 3
      vertex 5.001 7.001 9
    endloop
  endfacet
  facet normal 1 0 0
    outer loop
      vertex 5.001 7.001 3
      vertex 5.001 2 9
      vertex 5.001 2 3
    endloop
  endfacet
  facet normal 0 1 0
    outer loop
      vertex 5.001 7.001 3
      vertex 0.999 7.001 9
      vertex 5.001 7.001 9
    endloop
  endfacet
  facet normal 0 1 0
    outer loop
      vertex 0.999 7.001 9
      vertex 5.001 7.001 3
      vertex 0.999 7.001 3
    endloop
  endfacet
  facet normal -1 0 0
    outer loop
      vertex 0.999 2 3
      vertex 0.999 7.001 9
      vertex 0.999 7.001 3
    endloop
  endfacet
  facet normal -1 0 0
    outer loop
      vertex 0.999 7.001 9
      vertex 0.999 2 3
      vertex 0.999 2 9
    endloop
  endfacet
endsolid OpenSCAD_Model
