solid OpenSCAD_Model
  facet normal 0 0 1
    outer loop
      vertex 3.5703151864248563 7.866130056726816 9.001000000000001
      vertex 0.9992928932188134 1.9987752551286084 9.001000000000001
      vertex 4.864928050027665 3.034569073628896 9.001000000000001
    endloop
  endfacet
  facet normal 0 0 1
    outer loop
      vertex 0.9992928932188134 1.9987752551286084 9.001000000000001
      vertex 3.5703151864248563 7.866130056726816 9.001000000000001
      vertex -0.29531997038399527 6.830336238226528 9.001000000000001
    endloop
  endfacet
  facet normal 0 0 -1
    outer loop
      vertex 0.9992928932188134 1.9987752551286084 2.999
      vertex 3.5703151864248563 7.866130056726816 2.999
      vertex 4.864928050027665 3.034569073628896 2.999
    endloop
  endfacet
  facet normal 0 0 -1
    outer loop
      vertex 3.5703151864248563 7.866130056726816 2.999
      vertex 0.9992928932188134 1.9987752551286084 2.999
      vertex -0.29531997038399527 6.830336238226528 2.999
    endloop
  endfacet
  facet normal 0.2588190451025207 -0.9659258262890683 0
    outer loop
      vertex 0.9992928932188134 1.9987752551286084 2.999
      vertex 4.864928050027665 3.034569073628896 9.001000000000001
      vertex 0.9992928932188134 1.9987752551286084 9.001000000000001
    endloop
  endfacet
  facet normal 0.2588190451025207 -0.9659258262890683 0
    outer loop
      vertex 4.864928050027665 3.034569073628896 9.001000000000001
      vertex 0.9992928932188134 1.9987752551286084 2.999
      vertex 4.864928050027665 3.034569073628896 2.999
    endloop
  endfacet
  facet normal 0.9659258262890683 0.25881904510252063 0
    outer loop
      vertex 4.864928050027665 3.034569073628896 9.001000000000001
      vertex 3.5703151864248563 7.866130056726816 2.999
      vertex 3.5703151864248563 7.866130056726816 9.001000000000001
    endloop
  endfacet
  facet normal 0.9659258262890683 0.25881904510252063 0
    outer loop
      vertex 3.5703151864248563 7.866130056726816 2.999
      vertex 4.864928050027665 3.034569073628896 9.001000000000001
      vertex 4.864928050027665 3.034569073628896 2.999
    endloop
  endfacet
  facet normal -0.25881904510252074 0.9659258262890683 0
    outer loop
      vertex 3.5703151864248563 7.866130056726816 2.999
      vertex -0.29531997038399527 6.830336238226528 9.001000000000001
      vertex 3.5703151864248563 7.866130056726816 9.001000000000001
    endloop
  endfacet
  facet normal -0.25881904510252074 0.9659258262890683 0
    outer loop
      vertex -0.29531997038399527 6.830336238226528 9.001000000000001
      vertex 3.5703151864248563 7.866130056726816 2.999
      vertex -0.29531997038399527 6.830336238226528 2.999
    endloop
  endfacet
  facet normal -0.9659258262890682 -0.2588190451025207 0
    outer loop
      vertex 0.9992928932188134 1.9987752551286084 2.999
      vertex -0.29531997038399527 6.830336238226528 9.001000000000001
      vertex -0.29531997038399527 6.830336238226528 2.999
    endloop
  endfacet
  facet normal -0.9659258262890682 -0.2588190451025207 0
    outer loop
      vertex -0.29531997038399527 6.830336238226528 9.001000000000001
      vertex 0.9992928932188134 1.9987752551286084 2.999
      vertex 0.9992928932188134 1.9987752551286084 9.001000000000001
    endloop
  endfacet
endsolid OpenSCAD_Model
