solid OpenSCAD_Model
  facet normal 0 0 1
    outer loop
      vertex 0.999 7.001 9.001000000000001
      vertex 5.001 1.999 9.001000000000001
      vertex 5.001 7.001 9.001000000000001
    endloop
  endfacet
  facet normal 0 0 1
    outer loop
      vertex 5.001 1.999 9.001000000000001
      vertex 0.999 7.001 9.001000000000001
      vertex 0.999 1.999 9.001000000000001
    endloop
  endfacet
  facet normal 0 0 -1
    outer loop
      vertex 0.999 1.999 2.999
      vertex 5.001 7.001 2.999
      vertex 5.001 1.999 2.999
    endloop
  endfacet
  facet normal 0 0 -1
    outer loop
      vertex 5.001 7.001 2.999
      vertex 0.999 1.999 2.999
      vertex 0.999 7.001 2.999
    endloop
  endfacet
  facet normal 0 -1 0
    outer loop
      vertex 0.999 1.999 2.999
      vertex 5.001 1.999 9.001000000000001
      vertex 0.999 1.999 9.001000000000001
    endloop
  endfacet
  facet normal 0 -1 0
    outer loop
      vertex 5.001 1.999 9.001000000000001
      vertex 0.999 1.999 2.999
      vertex 5.001 1.999 2.999
    endloop
  endfacet
  facet normal 1 0 0
    outer loop
      vertex 5.001 1.999 9.001000000000001
      vertex 5.001 7.001 2.999
      vertex 5.001 7.001 9.001000000000001
    endloop
  endfacet
  facet normal 1 0 0
    outer loop
      vertex 5.001 7.001 2.999
      vertex 5.001 1.999 9.001000000000001
      vertex 5.001 1.999 2.999
    endloop
  endfacet
  facet normal 0 1 0
    outer loop
      vertex 5.001 7.001 2.999
      vertex 0.999 7.001 9.001000000000001
      vertex 5.001 7.001 9.001000000000001
    endloop
  endfacet
  facet normal 0 1 0
    outer loop
      vertex 0.999 7.001 9.001000000000001
      vertex 5.001 7.001 2.999
      vertex 0.999 7.001 2.999
    endloop
  endfacet
  facet normal -1 0 0
    outer loop
      vertex 0.999 1.999 2.999
      vertex 0.999 7.001 9.001000000000001
      vertex 0.999 7.001 2.999
    endloop
  endfacet
  facet normal -1 0 0
    outer loop
      vertex 0.999 7.001 9.001000000000001
      vertex 0.999 1.999 2.999
      vertex 0.999 1.999 9.001000000000001
    endloop
  endfacet
endsolid OpenSCAD_Model
