solid OpenSCAD_Model
  facet normal 0.8373192145987591 0.3826834323650894 -0.39044836208773015
    outer loop
      vertex 7.648044487565997 3 7.194400331466746
      vertex 3.6023591932597867 4.768474059747556 0.2517042591489337
      vertex 6.9841505237088635 4.768474059747556 7.503979171016206
    endloop
  endfacet
  facet normal 0.837319214598759 0.3826834323650898 -0.39044836208773
    outer loop
      vertex 3.6023591932597867 4.768474059747556 0.2517042591489337
      vertex 7.648044487565997 3 7.194400331466746
      vertex 4.266253157116921 3 -0.057874580400525844
    endloop
  endfacet
  facet normal 0.3468289747223936 0.923879532511287 -0.1617290069830986
    outer loop
      vertex 6.9841505237088635 4.768474059747556 7.503979171016206
      vertex 1.9995773817382594 5.5009999999999994 0.9990936922129634
      vertex 5.381368712187336 5.5009999999999994 8.251368604080236
    endloop
  endfacet
  facet normal 0.34682897472239366 0.9238795325112868 -0.1617290069830986
    outer loop
      vertex 1.9995773817382594 5.5009999999999994 0.9990936922129634
      vertex 6.9841505237088635 4.768474059747556 7.503979171016206
      vertex 3.6023591932597867 4.768474059747556 0.2517042591489337
    endloop
  endfacet
  facet normal -0.34682897472239355 0.9238795325112871 0.1617290069830985
    outer loop
      vertex 5.381368712187336 5.5009999999999994 8.251368604080236
      vertex 0.39679557021673206 4.768474059747556 1.7464831252769932
      vertex 3.7785869006658084 4.768474059747556 8.998758037144267
    endloop
  endfacet
  facet normal -0.34682897472239366 0.9238795325112868 0.16172900698309856
    outer loop
      vertex 0.39679557021673206 4.768474059747556 1.7464831252769932
      vertex 5.381368712187336 5.5009999999999994 8.251368604080236
      vertex 1.9995773817382594 5.5009999999999994 0.9990936922129634
    endloop
  endfacet
  facet normal -0.8373192145987591 0.38268343236508967 0.3904483620877299
    outer loop
      vertex -0.26709839364040233 3 2.0560619648264526
      vertex 3.7785869006658084 4.768474059747556 8.998758037144267
      vertex 0.39679557021673206 4.768474059747556 1.7464831252769932
    endloop
  endfacet
  facet normal -0.8373192145987592 0.38268343236508917 0.3904483620877301
    outer loop
      vertex 3.7785869006658084 4.768474059747556 8.998758037144267
      vertex -0.26709839364040233 3 2.0560619648264526
      vertex 3.1146929368086744 3 9.308336876693724
    endloop
  endfacet
  facet normal -0.837319214598759 -0.38268343236508956 0.39044836208773
    outer loop
      vertex 3.7785869006658084 1.2315259402524446 8.998758037144267
      vertex -0.26709839364040233 3 2.0560619648264526
      vertex 0.39679557021673206 1.2315259402524446 1.7464831252769932
    endloop
  endfacet
  facet normal -0.8373192145987592 -0.38268343236508906 0.3904483620877302
    outer loop
      vertex -0.26709839364040233 3 2.0560619648264526
      vertex 3.7785869006658084 1.2315259402524446 8.998758037144267
      vertex 3.1146929368086744 3 9.308336876693724
    endloop
  endfacet
  facet normal -0.3468289747223938 -0.9238795325112868 0.1617290069830986
    outer loop
      vertex 0.39679557021673206 1.2315259402524446 1.7464831252769932
      vertex 5.381368712187336 0.4990000000000001 8.251368604080236
      vertex 3.7785869006658084 1.2315259402524446 8.998758037144267
    endloop
  endfacet
  facet normal -0.346828974722394 -0.9238795325112867 0.16172900698309875
    outer loop
      vertex 5.381368712187336 0.4990000000000001 8.251368604080236
      vertex 0.39679557021673206 1.2315259402524446 1.7464831252769932
      vertex 1.9995773817382594 0.4990000000000001 0.9990936922129634
    endloop
  endfacet
  facet normal 0.3468289747223938 -0.9238795325112867 -0.16172900698309867
    outer loop
      vertex 1.9995773817382594 0.4990000000000001 0.9990936922129634
      vertex 6.9841505237088635 1.2315259402524446 7.503979171016206
      vertex 5.381368712187336 0.4990000000000001 8.251368604080236
    endloop
  endfacet
  facet normal 0.3468289747223938 -0.9238795325112867 -0.16172900698309867
    outer loop
      vertex 6.9841505237088635 1.2315259402524446 7.503979171016206
      vertex 1.9995773817382594 0.4990000000000001 0.9990936922129634
      vertex 3.6023591932597867 1.2315259402524446 0.2517042591489337
    endloop
  endfacet
  facet normal 0.8373192145987591 -0.3826834323650894 -0.39044836208773015
    outer loop
      vertex 3.6023591932597867 1.2315259402524446 0.2517042591489337
      vertex 7.648044487565997 3 7.194400331466746
      vertex 6.9841505237088635 1.2315259402524446 7.503979171016206
    endloop
  endfacet
  facet normal 0.837319214598759 -0.38268343236508984 -0.39044836208773
    outer loop
      vertex 7.648044487565997 3 7.194400331466746
      vertex 3.6023591932597867 1.2315259402524446 0.2517042591489337
      vertex 4.266253157116921 3 -0.057874580400525844
    endloop
  endfacet
  facet normal -0.4226182617406994 2.0081115365881154e-16 -0.90630778703665
    outer loop
      vertex -0.26709839364040233 3 2.0560619648264526
      vertex 4.266253157116921 3 -0.057874580400525844
      vertex 3.6023591932597867 1.2315259402524446 0.2517042591489337
    endloop
  endfacet
  facet normal -0.42261826174069944 0 -0.9063077870366499
    outer loop
      vertex 0.39679557021673206 1.2315259402524446 1.7464831252769932
      vertex 3.6023591932597867 1.2315259402524446 0.2517042591489337
      vertex 1.9995773817382594 0.4990000000000001 0.9990936922129634
    endloop
  endfacet
  facet normal -0.4226182617406994 0 -0.90630778703665
    outer loop
      vertex 4.266253157116921 3 -0.057874580400525844
      vertex -0.26709839364040233 3 2.0560619648264526
      vertex 3.6023591932597867 4.768474059747556 0.2517042591489337
    endloop
  endfacet
  facet normal -0.4226182617406995 -1.4199492849003943e-16 -0.9063077870366499
    outer loop
      vertex 3.6023591932597867 1.2315259402524446 0.2517042591489337
      vertex 0.39679557021673206 1.2315259402524446 1.7464831252769932
      vertex -0.26709839364040233 3 2.0560619648264526
    endloop
  endfacet
  facet normal -0.42261826174069944 1.2424556242878448e-16 -0.9063077870366499
    outer loop
      vertex 0.39679557021673206 4.768474059747556 1.7464831252769932
      vertex 3.6023591932597867 4.768474059747556 0.2517042591489337
      vertex -0.26709839364040233 3 2.0560619648264526
    endloop
  endfacet
  facet normal -0.42261826174069944 -1.714030410744257e-16 -0.9063077870366498
    outer loop
      vertex 3.6023591932597867 4.768474059747556 0.2517042591489337
      vertex 0.39679557021673206 4.768474059747556 1.7464831252769932
      vertex 1.9995773817382594 5.5009999999999994 0.9990936922129634
    endloop
  endfacet
  facet normal 0.4226182617406994 -2.0081115365881154e-16 0.9063077870366498
    outer loop
      vertex 3.1146929368086744 3 9.308336876693724
      vertex 7.648044487565997 3 7.194400331466746
      vertex 6.9841505237088635 4.768474059747556 7.503979171016206
    endloop
  endfacet
  facet normal 0.4226182617406997 5.14209123223277e-16 0.9063077870366498
    outer loop
      vertex 3.7785869006658084 4.768474059747556 8.998758037144267
      vertex 6.9841505237088635 4.768474059747556 7.503979171016206
      vertex 5.381368712187336 5.5009999999999994 8.251368604080236
    endloop
  endfacet
  facet normal 0.4226182617406995 1.0040557682940582e-16 0.90630778703665
    outer loop
      vertex 7.648044487565997 3 7.194400331466746
      vertex 3.1146929368086744 3 9.308336876693724
      vertex 6.9841505237088635 1.2315259402524446 7.503979171016206
    endloop
  endfacet
  facet normal 0.4226182617406997 -9.939644994302756e-16 0.9063077870366498
    outer loop
      vertex 6.9841505237088635 4.768474059747556 7.503979171016206
      vertex 3.7785869006658084 4.768474059747556 8.998758037144267
      vertex 3.1146929368086744 3 9.308336876693724
    endloop
  endfacet
  facet normal 0.4226182617406997 1.0472125976140405e-15 0.9063077870366498
    outer loop
      vertex 3.7785869006658084 1.2315259402524446 8.998758037144267
      vertex 6.9841505237088635 1.2315259402524446 7.503979171016206
      vertex 3.1146929368086744 3 9.308336876693724
    endloop
  endfacet
  facet normal 0.4226182617406997 -5.142091232232765e-16 0.9063077870366498
    outer loop
      vertex 6.9841505237088635 1.2315259402524446 7.503979171016206
      vertex 3.7785869006658084 1.2315259402524446 8.998758037144267
      vertex 5.381368712187336 0.4990000000000001 8.251368604080236
    endloop
  endfacet
endsolid OpenSCAD_Model
