solid OpenSCAD_Model
  facet normal 0 0 -1
    outer loop
      vertex 0 0 0
      vertex 3 7 0
      vertex 3 3 0
    endloop
  endfacet
  facet normal 0 0 -1
    outer loop
      vertex 0 0 0
      vertex 3 3 0
      vertex 7 3 0
    endloop
  endfacet
  facet normal -1 0 0
    outer loop
      vertex 0 0 0
      vertex 0 0 10
      vertex 0 10 10
    endloop
  endfacet
  facet normal 0 0 1
    outer loop
      vertex 0 0 10
      vertex 3 3 10
      vertex 0 10 10
    endloop
  endfacet
  facet normal 0 -1 0
    outer loop
      vertex 0 0 0
      vertex 10 0 10
      vertex 0 0 10
    endloop
  endfacet
  facet normal 0 0 1
    outer loop
      vertex 0 0 10
      vertex 10 0 10
      vertex 3 3 10
    endloop
  endfacet
  facet normal 0 0 -1
    outer loop
      vertex 0 0 0
      vertex 0 10 0
      vertex 3 7 0
    endloop
  endfacet
  facet normal -1 0 0
    outer loop
      vertex 0 0 0
      vertex 0 10 10
      vertex 0 10 0
    endloop
  endfacet
  facet normal 0 0 -1
    outer loop
      vertex 0 10 0
      vertex 10 10 0
      vertex 3 7 0
    endloop
  endfacet
  facet normal 0 1 0
    outer loop
      vertex 0 10 0
      vertex 0 10 10
      vertex 10 10 0
    endloop
  endfacet
  facet normal 0 0 1
    outer loop
      vertex 3 3 10
      vertex 3 7 10
      vertex 0 10 10
    endloop
  endfacet
  facet normal 0 0 1
    outer loop
      vertex 0 10 10
      vertex 3 7 10
      vertex 7 7 10
    endloop
  endfacet
  facet normal 0 0 -1
    outer loop
      vertex 0 0 0
      vertex 7 3 0
      vertex 10 0 0
    endloop
  endfacet
  facet normal 0 -1 0
    outer loop
      vertex 0 0 0
      vertex 10 0 0
      vertex 10 0 10
    endloop
  endfacet
  facet normal 0 0 -1
    outer loop
      vertex 7 3 0
      vertex 7 7 0
      vertex 10 0 0
    endloop
  endfacet
  facet normal 1 0 0
    outer loop
      vertex 10 0 0
      vertex 10 10 0
      vertex 10 0 10
    endloop
  endfacet
  facet normal 0 0 1
    outer loop
      vertex 3 3 10
      vertex 10 0 10
      vertex 7 3 10
    endloop
  endfacet
  facet normal 0 0 1
    outer loop
      vertex 7 3 10
      vertex 10 0 10
      vertex 7 7 10
    endloop
  endfacet
  facet normal 0 0 -1
    outer loop
      vertex 3 7 0
      vertex 10 10 0
      vertex 7 7 0
    endloop
  endfacet
  facet normal 0 0 -1
    outer loop
      vertex 10 0 0
      vertex 7 7 0
      vertex 10 10 0
    endloop
  endfacet
  facet normal 0 1 0
    outer loop
      vertex 0 10 10
      vertex 10 10 10
      vertex 10 10 0
    endloop
  endfacet
  facet normal 0 0 1
    outer loop
      vertex 0 10 10
      vertex 7 7 10
      vertex 10 10 10
    endloop
  endfacet
  facet normal 1 0 0
    outer loop
      vertex 10 0 10
      vertex 10 10 0
      vertex 10 10 10
    endloop
  endfacet
  facet normal 0 0 1
    outer loop
      vertex 10 0 10
      vertex 10 10 10
      vertex 7 7 10
    endloop
  endfacet
  facet normal 0 1 0
    outer loop
      vertex 3 3 0
      vertex 3 3 10
      vertex 7 3 0
    endloop
  endfacet
  facet normal 1 0 0
    outer loop
      vertex 3 3 0
      vertex 3 7 10
      vertex 3 3 10
    endloop
  endfacet
  facet normal 1 0 0
    outer loop
      vertex 3 3 0
      vertex 3 7 0
      vertex 3 7 10
    endloop
  endfacet
  facet normal 0 -1 0
    outer loop
      vertex 3 7 0
      vertex 7 7 10
      vertex 3 7 10
    endloop
  endfacet
  facet normal -1 0 0
    outer loop
      vertex 7 3 0
      vertex 7 3 10
      vertex 7 7 0
    endloop
  endfacet
  facet normal 0 1 0
    outer loop
      vertex 3 3 10
      vertex 7 3 10
      vertex 7 3 0
    endloop
  endfacet
  facet normal 0 -1 0
    outer loop
      vertex 3 7 0
      vertex 7 7 0
      vertex 7 7 10
    endloop
  endfacet
  facet normal -1 0 0
    outer loop
      vertex 7 3 10
      vertex 7 7 10
      vertex 7 7 0
    endloop
  endfacet
  facet normal -1 0 0
    outer loop
      vertex 4 4 4
      vertex 4 4 6
      vertex 4 6 6
    endloop
  endfacet
  facet normal 0 -1 0
    outer loop
      vertex 4 4 4
      vertex 6 4 6
      vertex 4 4 6
    endloop
  endfacet
  facet normal 0 0 1
    outer loop
      vertex 4 4 6
      vertex 6 4 6
      vertex 4 6 6
    endloop
  endfacet
  facet normal -1 0 0
    outer loop
      vertex 4 4 4
      vertex 4 6 6
      vertex 4 6 4
    endloop
  endfacet
  facet normal 0 0 -1
    outer loop
      vertex 4 4 4
      vertex 4 6 4
      vertex 6 6 4
    endloop
  endfacet
  facet normal 0 1 0
    outer loop
      vertex 4 6 4
      vertex 4 6 6
      vertex 6 6 4
    endloop
  endfacet
  facet normal 0 -1 0
    outer loop
      vertex 4 4 4
      vertex 6 4 4
      vertex 6 4 6
    endloop
  endfacet
  facet normal 0 0 -1
    outer loop
      vertex 4 4 4
      vertex 6 6 4
      vertex 6 4 4
    endloop
  endfacet
  facet normal 1 0 0
    outer loop
      vertex 6 4 4
      vertex 6 6 4
      vertex 6 4 6
    endloop
  endfacet
  facet normal 0 0 1
    outer loop
      vertex 4 6 6
      vertex 6 4 6
      vertex 6 6 6
    endloop
  endfacet
  facet normal 0 1 0
    outer loop
      vertex 4 6 6
      vertex 6 6 6
      vertex 6 6 4
    endloop
  endfacet
  facet normal 1 0 0
    outer loop
      vertex 6 4 6
      vertex 6 6 4
      vertex 6 6 6
    endloop
  endfacet
endsolid OpenSCAD_Model
