solid OpenSCAD_Model
  facet normal 0.923879532511287 0.38268343236508934 0
    outer loop
      vertex 4.5009999999999994 3 9.001
      vertex 3.7684740597475557 4.768474059747556 0.999
      vertex 3.7684740597475557 4.768474059747556 9.001
    endloop
  endfacet
  facet normal 0.923879532511287 0.38268343236508934 0
    outer loop
      vertex 3.7684740597475557 4.768474059747556 0.999
      vertex 4.5009999999999994 3 9.001
      vertex 4.5009999999999994 3 0.999
    endloop
  endfacet
  facet normal 0.38268343236508934 0.923879532511287 0
    outer loop
      vertex 3.7684740597475557 4.768474059747556 0.999
      vertex 2 5.5009999999999994 9.001
      vertex 3.7684740597475557 4.768474059747556 9.001
    endloop
  endfacet
  facet normal 0.38268343236508934 0.923879532511287 0
    outer loop
      vertex 2 5.5009999999999994 9.001
      vertex 3.7684740597475557 4.768474059747556 0.999
      vertex 2 5.5009999999999994 0.999
    endloop
  endfacet
  facet normal -0.38268343236508934 0.9238795325112868 0
    outer loop
      vertex 2 5.5009999999999994 0.999
      vertex 0.23152594025244455 4.768474059747556 9.001
      vertex 2 5.5009999999999994 9.001
    endloop
  endfacet
  facet normal -0.38268343236508934 0.9238795325112868 0
    outer loop
      vertex 0.23152594025244455 4.768474059747556 9.001
      vertex 2 5.5009999999999994 0.999
      vertex 0.23152594025244455 4.768474059747556 0.999
    endloop
  endfacet
  facet normal -0.9238795325112868 0.38268343236508967 0
    outer loop
      vertex -0.5009999999999999 3 0.999
      vertex 0.23152594025244455 4.768474059747556 9.001
      vertex 0.23152594025244455 4.768474059747556 0.999
    endloop
  endfacet
  facet normal -0.9238795325112868 0.38268343236508967 0
    outer loop
      vertex 0.23152594025244455 4.768474059747556 9.001
      vertex -0.5009999999999999 3 0.999
      vertex -0.5009999999999999 3 9.001
    endloop
  endfacet
  facet normal -0.9238795325112867 -0.38268343236508967 0
    outer loop
      vertex 0.23152594025244455 1.2315259402524446 0.999
      vertex -0.5009999999999999 3 9.001
      vertex -0.5009999999999999 3 0.999
    endloop
  endfacet
  facet normal -0.9238795325112867 -0.38268343236508967 0
    outer loop
      vertex -0.5009999999999999 3 9.001
      vertex 0.23152594025244455 1.2315259402524446 0.999
      vertex 0.23152594025244455 1.2315259402524446 9.001
    endloop
  endfacet
  facet normal -0.38268343236508967 -0.9238795325112867 0
    outer loop
      vertex 0.23152594025244455 1.2315259402524446 0.999
      vertex 2 0.4990000000000001 9.001
      vertex 0.23152594025244455 1.2315259402524446 9.001
    endloop
  endfacet
  facet normal -0.38268343236508967 -0.9238795325112867 0
    outer loop
      vertex 2 0.4990000000000001 9.001
      vertex 0.23152594025244455 1.2315259402524446 0.999
      vertex 2 0.4990000000000001 0.999
    endloop
  endfacet
  facet normal 0.38268343236508967 -0.9238795325112868 0
    outer loop
      vertex 2 0.4990000000000001 0.999
      vertex 3.7684740597475557 1.2315259402524446 9.001
      vertex 2 0.4990000000000001 9.001
    endloop
  endfacet
  facet normal 0.38268343236508967 -0.9238795325112868 0
    outer loop
      vertex 3.7684740597475557 1.2315259402524446 9.001
      vertex 2 0.4990000000000001 0.999
      vertex 3.7684740597475557 1.2315259402524446 0.999
    endloop
  endfacet
  facet normal 0.9238795325112868 -0.38268343236508934 0
    outer loop
      vertex 3.7684740597475557 1.2315259402524446 9.001
      vertex 4.5009999999999994 3 0.999
      vertex 4.5009999999999994 3 9.001
    endloop
  endfacet
  facet normal 0.9238795325112868 -0.38268343236508934 0
    outer loop
      vertex 4.5009999999999994 3 0.999
      vertex 3.7684740597475557 1.2315259402524446 9.001
      vertex 3.7684740597475557 1.2315259402524446 0.999
    endloop
  endfacet
  facet normal 0 0 -1
    outer loop
      vertex 3.7684740597475557 1.2315259402524446 0.999
      vertex 3.7684740597475557 4.768474059747556 0.999
      vertex 4.5009999999999994 3 0.999
    endloop
  endfacet
  facet normal 0 0 -1
    outer loop
      vertex 2 0.4990000000000001 0.999
      vertex 3.7684740597475557 4.768474059747556 0.999
      vertex 3.7684740597475557 1.2315259402524446 0.999
    endloop
  endfacet
  facet normal 0 0 -1
    outer loop
      vertex 2 0.4990000000000001 0.999
      vertex 2 5.5009999999999994 0.999
      vertex 3.7684740597475557 4.768474059747556 0.999
    endloop
  endfacet
  facet normal 0 0 -1
    outer loop
      vertex 0.23152594025244455 1.2315259402524446 0.999
      vertex 2 5.5009999999999994 0.999
      vertex 2 0.4990000000000001 0.999
    endloop
  endfacet
  facet normal 0 0 -1
    outer loop
      vertex 0.23152594025244455 1.2315259402524446 0.999
      vertex 0.23152594025244455 4.768474059747556 0.999
      vertex 2 5.5009999999999994 0.999
    endloop
  endfacet
  facet normal 0 0 -1
    outer loop
      vertex 0.23152594025244455 4.768474059747556 0.999
      vertex 0.23152594025244455 1.2315259402524446 0.999
      vertex -0.5009999999999999 3 0.999
    endloop
  endfacet
  facet normal 0 0 1
    outer loop
      vertex 3.7684740597475557 4.768474059747556 9.001
      vertex 3.7684740597475557 1.2315259402524446 9.001
      vertex 4.5009999999999994 3 9.001
    endloop
  endfacet
  facet normal 0 0 1
    outer loop
      vertex 2 5.5009999999999994 9.001
      vertex 3.7684740597475557 1.2315259402524446 9.001
      vertex 3.7684740597475557 4.768474059747556 9.001
    endloop
  endfacet
  facet normal 0 0 1
    outer loop
      vertex 2 5.5009999999999994 9.001
      vertex 2 0.4990000000000001 9.001
      vertex 3.7684740597475557 1.2315259402524446 9.001
    endloop
  endfacet
  facet normal 0 0 1
    outer loop
      vertex 0.23152594025244455 4.768474059747556 9.001
      vertex 2 0.4990000000000001 9.001
      vertex 2 5.5009999999999994 9.001
    endloop
  endfacet
  facet normal 0 0 1
    outer loop
      vertex 0.23152594025244455 4.768474059747556 9.001
      vertex 0.23152594025244455 1.2315259402524446 9.001
      vertex 2 0.4990000000000001 9.001
    endloop
  endfacet
  facet normal 0 0 1
    outer loop
      vertex 0.23152594025244455 1.2315259402524446 9.001
      vertex 0.23152594025244455 4.768474059747556 9.001
      vertex -0.5009999999999999 3 9.001
    endloop
  endfacet
endsolid OpenSCAD_Model
