solid OpenSCAD_Model
  facet normal -1 0 0
    outer loop
      vertex -10 -0.1 10
      vertex -10 0 -10
      vertex -10 -0.1 -10
    endloop
  endfacet
  facet normal 0 0 1
    outer loop
      vertex -10 -0.1 10
      vertex 10 -0.1 10
      vertex -10 0 10
    endloop
  endfacet
  facet normal 0 0 -1
    outer loop
      vertex -10 0 -10
      vertex 10 0 -10
      vertex -10 -0.1 -10
    endloop
  endfacet
  facet normal -1 0 0
    outer loop
      vertex -10 -0.1 10
      vertex -10 0 10
      vertex -10 0 -10
    endloop
  endfacet
  facet normal 0 0 -1
    outer loop
      vertex 10 0 -10
      vertex 10 -0.1 -10
      vertex -10 -0.1 -10
    endloop
  endfacet
  facet normal 1 0 0
    outer loop
      vertex 10 -0.1 10
      vertex 10 -0.1 -10
      vertex 10 0 10
    endloop
  endfacet
  facet normal 1 0 0
    outer loop
      vertex 10 -0.1 -10
      vertex 10 0 -10
      vertex 10 0 10
    endloop
  endfacet
  facet normal 0 0 1
    outer loop
      vertex 10 -0.1 10
      vertex 10 0 10
      vertex -10 0 10
    endloop
  endfacet
  facet normal 0 -1 0
    outer loop
      vertex -10 -0.1 10
      vertex -10 -0.1 -10
      vertex 10 -0.1 10
    endloop
  endfacet
  facet normal 0 1 0
    outer loop
      vertex -10 0 -10
      vertex -10 0 10
      vertex 10 0 -10
    endloop
  endfacet
  facet normal 0 -1 0
    outer loop
      vertex 10 -0.1 -10
      vertex 10 -0.1 10
      vertex -10 -0.1 -10
    endloop
  endfacet
  facet normal 0 1 0
    outer loop
      vertex 10 0 10
      vertex 10 0 -10
      vertex -10 0 10
    endloop
  endfacet
endsolid OpenSCAD_Model
