solid OpenSCAD_Model
  facet normal 1 0 0
    outer loop
      vertex 9 6 10
      vertex 9 8 7
      vertex 9 8 10
    endloop
  endfacet
  facet normal 1 0 0
    outer loop
      vertex 9 8 7
      vertex 9 6 10
      vertex 9 6 7
    endloop
  endfacet
  facet normal -1 0 0
    outer loop
      vertex 5 6 7
      vertex 5 8 10
      vertex 5 8 7
    endloop
  endfacet
  facet normal -1 0 0
    outer loop
      vertex 5 8 10
      vertex 5 6 7
      vertex 5 6 10
    endloop
  endfacet
  facet normal 0 0 -1
    outer loop
      vertex 5 6 7
      vertex 9 8 7
      vertex 9 6 7
    endloop
  endfacet
  facet normal 0 0 -1
    outer loop
      vertex 9 8 7
      vertex 5 6 7
      vertex 5 8 7
    endloop
  endfacet
  facet normal 0 1 0
    outer loop
      vertex 9 8 7
      vertex 5 8 10
      vertex 9 8 10
    endloop
  endfacet
  facet normal 0 1 0
    outer loop
      vertex 5 8 10
      vertex 9 8 7
      vertex 5 8 7
    endloop
  endfacet
  facet normal 0 0 1
    outer loop
      vertex 5 8 10
      vertex 9 6 10
      vertex 9 8 10
    endloop
  endfacet
  facet normal 0 0 1
    outer loop
      vertex 9 6 10
      vertex 5 8 10
      vertex 5 6 10
    endloop
  endfacet
  facet normal 0 -1 0
    outer loop
      vertex 5 6 7
      vertex 9 6 10
      vertex 5 6 10
    endloop
  endfacet
  facet normal 0 -1 0
    outer loop
      vertex 9 6 10
      vertex 5 6 7
      vertex 9 6 7
    endloop
  endfacet
endsolid OpenSCAD_Model
