solid OpenSCAD_Model
  facet normal 0.48284502767032855 0.022132014813177673 0.8754260980655928
    outer loop
      vertex 5.538083849786041 8.650464624500758 11.205413540291786
      vertex 8.416187863693521 7.128201640704077 9.656467868780974
      vertex 7.022891602798249 9.690138205952127 10.360177016810386
    endloop
  endfacet
  facet normal 0.48284502767032805 0.022132014813176573 0.8754260980655931
    outer loop
      vertex 8.416187863693521 7.128201640704077 9.656467868780974
      vertex 5.538083849786041 8.650464624500758 11.205413540291786
      vertex 6.931380110681312 6.088528059252709 10.501704392262372
    endloop
  endfacet
  facet normal -0.48284502767032805 -0.0221320148131771 -0.8754260980655931
    outer loop
      vertex 3.606703739104728 8.561936565248049 7.7037091480294135
      vertex 6.484807753012208 7.039673581451369 6.1547634765186015
      vertex 5 6 7
    endloop
  endfacet
  facet normal -0.48284502767032816 -0.022132014813177465 -0.875426098065593
    outer loop
      vertex 6.484807753012208 7.039673581451369 6.1547634765186015
      vertex 3.606703739104728 8.561936565248049 7.7037091480294135
      vertex 5.091511492116936 9.601610146699418 6.858472624548014
    endloop
  endfacet
  facet normal 0.46443208696509036 -0.8539788550826835 -0.23456971600980425
    outer loop
      vertex 5 6 7
      vertex 8.416187863693521 7.128201640704077 9.656467868780974
      vertex 6.931380110681312 6.088528059252709 10.501704392262372
    endloop
  endfacet
  facet normal 0.46443208696509064 -0.8539788550826831 -0.23456971600980475
    outer loop
      vertex 8.416187863693521 7.128201640704077 9.656467868780974
      vertex 5 6 7
      vertex 6.484807753012208 7.039673581451369 6.1547634765186015
    endloop
  endfacet
  facet normal 0.7424038765061042 0.5198367907256842 -0.4226182617406996
    outer loop
      vertex 8.416187863693521 7.128201640704077 9.656467868780974
      vertex 5.091511492116936 9.601610146699418 6.858472624548014
      vertex 7.022891602798249 9.690138205952127 10.360177016810386
    endloop
  endfacet
  facet normal 0.7424038765061041 0.5198367907256845 -0.42261826174069933
    outer loop
      vertex 5.091511492116936 9.601610146699418 6.858472624548014
      vertex 8.416187863693521 7.128201640704077 9.656467868780974
      vertex 6.484807753012208 7.039673581451369 6.1547634765186015
    endloop
  endfacet
  facet normal -0.46443208696509075 0.8539788550826832 0.2345697160098043
    outer loop
      vertex 7.022891602798249 9.690138205952127 10.360177016810386
      vertex 3.606703739104728 8.561936565248049 7.7037091480294135
      vertex 5.538083849786041 8.650464624500758 11.205413540291786
    endloop
  endfacet
  facet normal -0.46443208696509075 0.853978855082683 0.23456971600980436
    outer loop
      vertex 3.606703739104728 8.561936565248049 7.7037091480294135
      vertex 7.022891602798249 9.690138205952127 10.360177016810386
      vertex 5.091511492116936 9.601610146699418 6.858472624548014
    endloop
  endfacet
  facet normal -0.7424038765061041 -0.5198367907256845 0.4226182617406996
    outer loop
      vertex 3.606703739104728 8.561936565248049 7.7037091480294135
      vertex 6.931380110681312 6.088528059252709 10.501704392262372
      vertex 5.538083849786041 8.650464624500758 11.205413540291786
    endloop
  endfacet
  facet normal -0.742403876506104 -0.5198367907256846 0.42261826174069933
    outer loop
      vertex 6.931380110681312 6.088528059252709 10.501704392262372
      vertex 3.606703739104728 8.561936565248049 7.7037091480294135
      vertex 5 6 7
    endloop
  endfacet
endsolid OpenSCAD_Model
