solid OpenSCAD_Model
  facet normal 0 0 1
    outer loop
      vertex 5 9 11
      vertex 7 6 11
      vertex 7 9 11
    endloop
  endfacet
  facet normal 0 0 1
    outer loop
      vertex 7 6 11
      vertex 5 9 11
      vertex 5 6 11
    endloop
  endfacet
  facet normal 0 0 -1
    outer loop
      vertex 5 6 7
      vertex 7 9 7
      vertex 7 6 7
    endloop
  endfacet
  facet normal 0 0 -1
    outer loop
      vertex 7 9 7
      vertex 5 6 7
      vertex 5 9 7
    endloop
  endfacet
  facet normal 0 -1 0
    outer loop
      vertex 5 6 7
      vertex 7 6 11
      vertex 5 6 11
    endloop
  endfacet
  facet normal 0 -1 0
    outer loop
      vertex 7 6 11
      vertex 5 6 7
      vertex 7 6 7
    endloop
  endfacet
  facet normal 1 0 0
    outer loop
      vertex 7 6 11
      vertex 7 9 7
      vertex 7 9 11
    endloop
  endfacet
  facet normal 1 0 0
    outer loop
      vertex 7 9 7
      vertex 7 6 11
      vertex 7 6 7
    endloop
  endfacet
  facet normal 0 1 0
    outer loop
      vertex 7 9 7
      vertex 5 9 11
      vertex 7 9 11
    endloop
  endfacet
  facet normal 0 1 0
    outer loop
      vertex 5 9 11
      vertex 7 9 7
      vertex 5 9 7
    endloop
  endfacet
  facet normal -1 0 0
    outer loop
      vertex 5 6 7
      vertex 5 9 11
      vertex 5 9 7
    endloop
  endfacet
  facet normal -1 0 0
    outer loop
      vertex 5 9 11
      vertex 5 6 7
      vertex 5 6 11
    endloop
  endfacet
endsolid OpenSCAD_Model
