solid OpenSCAD_Model
  facet normal 0 -0.5 0.8660254037844387
    outer loop
      vertex 0 0.598076211353316 4.964101615137754
      vertex 2 -2 3.4641016151377544
      vertex 2 0.598076211353316 4.964101615137754
    endloop
  endfacet
  facet normal 0 -0.5 0.8660254037844387
    outer loop
      vertex 2 -2 3.4641016151377544
      vertex 0 0.598076211353316 4.964101615137754
      vertex 0 -2 3.4641016151377544
    endloop
  endfacet
  facet normal 0 0.5 -0.8660254037844387
    outer loop
      vertex 0 0 0
      vertex 2 2.598076211353316 1.5
      vertex 2 0 0
    endloop
  endfacet
  facet normal 0 0.5 -0.8660254037844387
    outer loop
      vertex 2 2.598076211353316 1.5
      vertex 0 0 0
      vertex 0 2.598076211353316 1.5
    endloop
  endfacet
  facet normal 0 -0.8660254037844387 -0.5000000000000001
    outer loop
      vertex 0 0 0
      vertex 2 -2 3.4641016151377544
      vertex 0 -2 3.4641016151377544
    endloop
  endfacet
  facet normal 0 -0.8660254037844387 -0.5000000000000001
    outer loop
      vertex 2 -2 3.4641016151377544
      vertex 0 0 0
      vertex 2 0 0
    endloop
  endfacet
  facet normal 1 0 0
    outer loop
      vertex 2 0.598076211353316 4.964101615137754
      vertex 2 0 0
      vertex 2 2.598076211353316 1.5
    endloop
  endfacet
  facet normal 1 0 0
    outer loop
      vertex 2 0 0
      vertex 2 0.598076211353316 4.964101615137754
      vertex 2 -2 3.4641016151377544
    endloop
  endfacet
  facet normal 0 0.8660254037844387 0.5000000000000001
    outer loop
      vertex 2 2.598076211353316 1.5
      vertex 0 0.598076211353316 4.964101615137754
      vertex 2 0.598076211353316 4.964101615137754
    endloop
  endfacet
  facet normal 0 0.8660254037844387 0.5000000000000001
    outer loop
      vertex 0 0.598076211353316 4.964101615137754
      vertex 2 2.598076211353316 1.5
      vertex 0 2.598076211353316 1.5
    endloop
  endfacet
  facet normal -1 0 0
    outer loop
      vertex 0 0 0
      vertex 0 0.598076211353316 4.964101615137754
      vertex 0 2.598076211353316 1.5
    endloop
  endfacet
  facet normal -1 0 0
    outer loop
      vertex 0 0.598076211353316 4.964101615137754
      vertex 0 0 0
      vertex 0 -2 3.4641016151377544
    endloop
  endfacet
endsolid OpenSCAD_Model
