solid OpenSCAD_Model
  facet normal 0 0 1
    outer loop
      vertex 0 3 11
      vertex 2 0 11
      vertex 2 3 11
    endloop
  endfacet
  facet normal 0 0 1
    outer loop
      vertex 2 0 11
      vertex 0 3 11
      vertex 0 0 11
    endloop
  endfacet
  facet normal 0 0 -1
    outer loop
      vertex 0 0 7
      vertex 2 3 7
      vertex 2 0 7
    endloop
  endfacet
  facet normal 0 0 -1
    outer loop
      vertex 2 3 7
      vertex 0 0 7
      vertex 0 3 7
    endloop
  endfacet
  facet normal 0 -1 0
    outer loop
      vertex 0 0 7
      vertex 2 0 11
      vertex 0 0 11
    endloop
  endfacet
  facet normal 0 -1 0
    outer loop
      vertex 2 0 11
      vertex 0 0 7
      vertex 2 0 7
    endloop
  endfacet
  facet normal 1 0 0
    outer loop
      vertex 2 0 11
      vertex 2 3 7
      vertex 2 3 11
    endloop
  endfacet
  facet normal 1 0 0
    outer loop
      vertex 2 3 7
      vertex 2 0 11
      vertex 2 0 7
    endloop
  endfacet
  facet normal 0 1 0
    outer loop
      vertex 2 3 7
      vertex 0 3 11
      vertex 2 3 11
    endloop
  endfacet
  facet normal 0 1 0
    outer loop
      vertex 0 3 11
      vertex 2 3 7
      vertex 0 3 7
    endloop
  endfacet
  facet normal -1 0 0
    outer loop
      vertex 0 0 7
      vertex 0 3 11
      vertex 0 3 7
    endloop
  endfacet
  facet normal -1 0 0
    outer loop
      vertex 0 3 11
      vertex 0 0 7
      vertex 0 0 11
    endloop
  endfacet
endsolid OpenSCAD_Model
