solid OpenSCAD_Model
  facet normal 0.48284502767032816 0.022132014813177097 0.875426098065593
    outer loop
      vertex 0.5380838497860407 2.6504646245007577 4.205413540291786
      vertex 3.4161878636935206 1.1282016407040776 2.656467868780973
      vertex 2.022891602798249 3.6901382059521266 3.3601770168103866
    endloop
  endfacet
  facet normal 0.48284502767032816 0.02213201481317717 0.875426098065593
    outer loop
      vertex 3.4161878636935206 1.1282016407040776 2.656467868780973
      vertex 0.5380838497860407 2.6504646245007577 4.205413540291786
      vertex 1.9313801106813124 0.08852805925270868 3.501704392262372
    endloop
  endfacet
  facet normal -0.48284502767032816 -0.022132014813177097 -0.875426098065593
    outer loop
      vertex -1.3932962608952717 2.561936565248049 0.7037091480294134
      vertex 1.4848077530122081 1.039673581451369 -0.8452365234813989
      vertex 0 0 0
    endloop
  endfacet
  facet normal -0.48284502767032816 -0.022132014813177097 -0.875426098065593
    outer loop
      vertex 1.4848077530122081 1.039673581451369 -0.8452365234813989
      vertex -1.3932962608952717 2.561936565248049 0.7037091480294134
      vertex 0.09151149211693643 3.601610146699418 -0.14152737545198546
    endloop
  endfacet
  facet normal 0.46443208696509053 -0.8539788550826831 -0.23456971600980442
    outer loop
      vertex 0 0 0
      vertex 3.4161878636935206 1.1282016407040776 2.656467868780973
      vertex 1.9313801106813124 0.08852805925270868 3.501704392262372
    endloop
  endfacet
  facet normal 0.46443208696509053 -0.8539788550826831 -0.23456971600980442
    outer loop
      vertex 3.4161878636935206 1.1282016407040776 2.656467868780973
      vertex 0 0 0
      vertex 1.4848077530122081 1.039673581451369 -0.8452365234813989
    endloop
  endfacet
  facet normal 0.7424038765061041 0.5198367907256845 -0.42261826174069933
    outer loop
      vertex 3.4161878636935206 1.1282016407040776 2.656467868780973
      vertex 0.09151149211693643 3.601610146699418 -0.14152737545198546
      vertex 2.022891602798249 3.6901382059521266 3.3601770168103866
    endloop
  endfacet
  facet normal 0.7424038765061041 0.5198367907256846 -0.42261826174069933
    outer loop
      vertex 0.09151149211693643 3.601610146699418 -0.14152737545198546
      vertex 3.4161878636935206 1.1282016407040776 2.656467868780973
      vertex 1.4848077530122081 1.039673581451369 -0.8452365234813989
    endloop
  endfacet
  facet normal -0.46443208696509053 0.8539788550826832 0.23456971600980447
    outer loop
      vertex 2.022891602798249 3.6901382059521266 3.3601770168103866
      vertex -1.3932962608952717 2.561936565248049 0.7037091480294134
      vertex 0.5380838497860407 2.6504646245007577 4.205413540291786
    endloop
  endfacet
  facet normal -0.4644320869650906 0.8539788550826831 0.23456971600980453
    outer loop
      vertex -1.3932962608952717 2.561936565248049 0.7037091480294134
      vertex 2.022891602798249 3.6901382059521266 3.3601770168103866
      vertex 0.09151149211693643 3.601610146699418 -0.14152737545198546
    endloop
  endfacet
  facet normal -0.7424038765061041 -0.5198367907256843 0.4226182617406994
    outer loop
      vertex -1.3932962608952717 2.561936565248049 0.7037091480294134
      vertex 1.9313801106813124 0.08852805925270868 3.501704392262372
      vertex 0.5380838497860407 2.6504646245007577 4.205413540291786
    endloop
  endfacet
  facet normal -0.7424038765061041 -0.5198367907256843 0.4226182617406994
    outer loop
      vertex 1.9313801106813124 0.08852805925270868 3.501704392262372
      vertex -1.3932962608952717 2.561936565248049 0.7037091480294134
      vertex 0 0 0
    endloop
  endfacet
endsolid OpenSCAD_Model
