solid OpenSCAD_Model
  facet normal 0 0 1
    outer loop
      vertex 5 3 4
      vertex 7 0 4
      vertex 7 3 4
    endloop
  endfacet
  facet normal 0 0 1
    outer loop
      vertex 7 0 4
      vertex 5 3 4
      vertex 5 0 4
    endloop
  endfacet
  facet normal 0 0 -1
    outer loop
      vertex 5 0 0
      vertex 7 3 0
      vertex 7 0 0
    endloop
  endfacet
  facet normal 0 0 -1
    outer loop
      vertex 7 3 0
      vertex 5 0 0
      vertex 5 3 0
    endloop
  endfacet
  facet normal 0 -1 0
    outer loop
      vertex 5 0 0
      vertex 7 0 4
      vertex 5 0 4
    endloop
  endfacet
  facet normal 0 -1 0
    outer loop
      vertex 7 0 4
      vertex 5 0 0
      vertex 7 0 0
    endloop
  endfacet
  facet normal 1 0 0
    outer loop
      vertex 7 0 4
      vertex 7 3 0
      vertex 7 3 4
    endloop
  endfacet
  facet normal 1 0 0
    outer loop
      vertex 7 3 0
      vertex 7 0 4
      vertex 7 0 0
    endloop
  endfacet
  facet normal 0 1 0
    outer loop
      vertex 7 3 0
      vertex 5 3 4
      vertex 7 3 4
    endloop
  endfacet
  facet normal 0 1 0
    outer loop
      vertex 5 3 4
      vertex 7 3 0
      vertex 5 3 0
    endloop
  endfacet
  facet normal -1 0 0
    outer loop
      vertex 5 0 0
      vertex 5 3 4
      vertex 5 3 0
    endloop
  endfacet
  facet normal -1 0 0
    outer loop
      vertex 5 3 4
      vertex 5 0 0
      vertex 5 0 4
    endloop
  endfacet
endsolid OpenSCAD_Model
