solid OpenSCAD_Model
  facet normal 0 0 1
    outer loop
      vertex -1.0125581099838556 3.460451715297574 4
      vertex 0 0 4
      vertex 1.2855752193730785 1.532088886237956 4
    endloop
  endfacet
  facet normal 0 0 1
    outer loop
      vertex 0 0 4
      vertex -1.0125581099838556 3.460451715297574 4
      vertex -2.298133329356934 1.9283628290596178 4
    endloop
  endfacet
  facet normal 0 0 -1
    outer loop
      vertex 0 0 0
      vertex -1.0125581099838556 3.460451715297574 0
      vertex 1.2855752193730785 1.532088886237956 0
    endloop
  endfacet
  facet normal 0 0 -1
    outer loop
      vertex -1.0125581099838556 3.460451715297574 0
      vertex 0 0 0
      vertex -2.298133329356934 1.9283628290596178 0
    endloop
  endfacet
  facet normal 0.7660444431189781 -0.6427876096865394 0
    outer loop
      vertex 0 0 4
      vertex 1.2855752193730785 1.532088886237956 0
      vertex 1.2855752193730785 1.532088886237956 4
    endloop
  endfacet
  facet normal 0.7660444431189781 -0.6427876096865394 0
    outer loop
      vertex 1.2855752193730785 1.532088886237956 0
      vertex 0 0 4
      vertex 0 0 0
    endloop
  endfacet
  facet normal 0.6427876096865394 0.766044443118978 0
    outer loop
      vertex 1.2855752193730785 1.532088886237956 0
      vertex -1.0125581099838556 3.460451715297574 4
      vertex 1.2855752193730785 1.532088886237956 4
    endloop
  endfacet
  facet normal 0.6427876096865394 0.766044443118978 0
    outer loop
      vertex -1.0125581099838556 3.460451715297574 4
      vertex 1.2855752193730785 1.532088886237956 0
      vertex -1.0125581099838556 3.460451715297574 0
    endloop
  endfacet
  facet normal -0.7660444431189781 0.6427876096865393 0
    outer loop
      vertex -2.298133329356934 1.9283628290596178 0
      vertex -1.0125581099838556 3.460451715297574 4
      vertex -1.0125581099838556 3.460451715297574 0
    endloop
  endfacet
  facet normal -0.7660444431189781 0.6427876096865393 0
    outer loop
      vertex -1.0125581099838556 3.460451715297574 4
      vertex -2.298133329356934 1.9283628290596178 0
      vertex -2.298133329356934 1.9283628290596178 4
    endloop
  endfacet
  facet normal -0.6427876096865393 -0.766044443118978 0
    outer loop
      vertex -2.298133329356934 1.9283628290596178 0
      vertex 0 0 4
      vertex -2.298133329356934 1.9283628290596178 4
    endloop
  endfacet
  facet normal -0.6427876096865393 -0.766044443118978 0
    outer loop
      vertex 0 0 4
      vertex -2.298133329356934 1.9283628290596178 0
      vertex 0 0 0
    endloop
  endfacet
endsolid OpenSCAD_Model
