solid OpenSCAD_Model
  facet normal 0 0 1
    outer loop
      vertex 0 9 4
      vertex 2 6 4
      vertex 2 9 4
    endloop
  endfacet
  facet normal 0 0 1
    outer loop
      vertex 2 6 4
      vertex 0 9 4
      vertex 0 6 4
    endloop
  endfacet
  facet normal 0 0 -1
    outer loop
      vertex 0 6 0
      vertex 2 9 0
      vertex 2 6 0
    endloop
  endfacet
  facet normal 0 0 -1
    outer loop
      vertex 2 9 0
      vertex 0 6 0
      vertex 0 9 0
    endloop
  endfacet
  facet normal 0 -1 0
    outer loop
      vertex 0 6 0
      vertex 2 6 4
      vertex 0 6 4
    endloop
  endfacet
  facet normal 0 -1 0
    outer loop
      vertex 2 6 4
      vertex 0 6 0
      vertex 2 6 0
    endloop
  endfacet
  facet normal 1 0 0
    outer loop
      vertex 2 6 4
      vertex 2 9 0
      vertex 2 9 4
    endloop
  endfacet
  facet normal 1 0 0
    outer loop
      vertex 2 9 0
      vertex 2 6 4
      vertex 2 6 0
    endloop
  endfacet
  facet normal 0 1 0
    outer loop
      vertex 2 9 0
      vertex 0 9 4
      vertex 2 9 4
    endloop
  endfacet
  facet normal 0 1 0
    outer loop
      vertex 0 9 4
      vertex 2 9 0
      vertex 0 9 0
    endloop
  endfacet
  facet normal -1 0 0
    outer loop
      vertex 0 6 0
      vertex 0 9 4
      vertex 0 9 0
    endloop
  endfacet
  facet normal -1 0 0
    outer loop
      vertex 0 9 4
      vertex 0 6 0
      vertex 0 6 4
    endloop
  endfacet
endsolid OpenSCAD_Model
